<svg xmlns="http://www.w3.org/2000/svg" xmlns:xlink="http://www.w3.org/1999/xlink" viewBox="0 0 234.66 110.35"><defs><style>.cls-1{fill:url(#Degradado_sin_nombre_18);}</style><linearGradient id="Degradado_sin_nombre_18" x1="0.15" y1="55.32" x2="234.42" y2="55.32" gradientTransform="translate(-0.22 0.45) rotate(-0.28)" gradientUnits="userSpaceOnUse"><stop offset="0" stop-color="#63a4d9"/><stop offset="0.37" stop-color="#658baa"/><stop offset="0.79" stop-color="#67727a"/><stop offset="1" stop-color="#686868"/></linearGradient></defs><title>Recurso 1</title><g id="Capa_2" data-name="Capa 2"><g id="Capa_1-2" data-name="Capa 1"><path class="cls-1" d="M120.15,11.19a11,11,0,0,1-.31,2.66.09.09,0,0,0,0,.05L99.88,95.66,98.09,103l-.21.37a13.87,13.87,0,0,1-25.22-3.55c-.07-.27-.13-.56-.2-.83l-7.6-31.66a2,2,0,0,0,0-.24,4.42,4.42,0,0,0-.62-2.26h0a4.52,4.52,0,0,0-7.89.07h0a4.52,4.52,0,0,0-.57,2.24,2.87,2.87,0,0,0,0,.29h0l-6.66,30.2-.63,2.89s0,0,0,0A13.62,13.62,0,0,1,47,103.66a14.17,14.17,0,0,1-24,.12,13.81,13.81,0,0,1-1.46-3s0,0,0,0L21,98.28.75,18.89.17,16.61a.06.06,0,0,0,0,0A13.88,13.88,0,0,1,0,14.51,13.53,13.53,0,0,1,6.84,2.66h.1l.06,0a13.31,13.31,0,0,1,12.82-.06l.06,0h0a13.53,13.53,0,0,1,5.56,5.84,0,0,0,0,1,0,0v0l1.39,6,10.65,46L48.09,12.64v0l.42-1.91h0a14,14,0,0,1,6.65-8.28,13.8,13.8,0,0,1,13.18-.07,14,14,0,0,1,6.8,8.49s0,0,0,0l.23.91s0,0,0,0L87.45,60.51,99.09,8.6a10.78,10.78,0,0,1,4.61-6.42,10.61,10.61,0,0,1,11.45-.06A10.77,10.77,0,0,1,120.15,11.19ZM234.66,94a16,16,0,0,1-2.44,8.62,14.16,14.16,0,0,1-24.22.12,14,14,0,0,1-.81-1.44s0,0,0,0l-1.65-6v0l-2.28-8.31h0a4.35,4.35,0,0,0-.48-1.72v0a3.92,3.92,0,0,0-3.27-2.14h-.41l-19.66.1H179a3.94,3.94,0,0,0-3.41,2.5,0,0,0,0,1,0,0,4.08,4.08,0,0,0-.26,1h0l-2.56,9.19-.63,2.26-1.33,4.81a11.37,11.37,0,0,1-20.53.1,12.9,12.9,0,0,1-1.42-5.84q0-.38,0-.76l1.64-5.67,16.52-68.93h0c1.29-3.17,5.88-12.34,5.88-12.34s0,0,0,0c2.07-3.33,5.89-5.28,9.28-7.07a20.43,20.43,0,0,1,19.06-.09,21.79,21.79,0,0,1,8,7.1h0l4.08,13.45h0l19.12,63h0l2.19,7.24v0C234.65,93.42,234.66,93.71,234.66,94ZM198.31,54.37a2.23,2.23,0,0,0,0-.25,3,3,0,0,0-.27-1L195.87,45l-3.06-11.44a2.82,2.82,0,0,0-.25-.95,2.72,2.72,0,0,0-5,0s0,0,0,0a2.75,2.75,0,0,0-.23.9.08.08,0,0,0,0,0l-2.69,10.48-2.37,9.2s0,0,0,.05a2.16,2.16,0,0,0-.15.61,2.09,2.09,0,0,0,0,.48,2.87,2.87,0,0,0,2.8,2.93l10.73-.05A2.86,2.86,0,0,0,198.31,54.37ZM154.22,3.6A11.77,11.77,0,0,0,143.13.79a14.82,14.82,0,0,0-9.31,7.92L112.49,94.28a16.16,16.16,0,0,0,.2,4.65c1,5.11,4.41,9.29,9.24,10.51s9.81-.83,13.07-4.86a16.06,16.06,0,0,0,2.36-4L158.71,15A15,15,0,0,0,154.22,3.6Z"/></g></g></svg>