<?xml version="1.0" encoding="UTF-8" ?>
<!DOCTYPE svg PUBLIC "-//W3C//DTD SVG 1.1//EN" "http://www.w3.org/Graphics/SVG/1.1/DTD/svg11.dtd">
<svg width="1062pt" height="259pt" viewBox="0 0 1062 259" version="1.1" xmlns="http://www.w3.org/2000/svg">
<g id="#0062abff">
<path fill="#0062ab" opacity="1.00" d=" M 22.16 56.01 C 22.50 44.03 32.87 33.14 44.94 32.66 C 99.44 32.66 153.94 32.64 208.45 32.67 C 208.32 86.78 208.43 140.89 208.39 195.01 C 208.13 207.32 197.27 218.24 184.98 218.60 C 130.69 218.58 76.41 218.61 22.12 218.59 C 22.22 164.40 22.14 110.20 22.16 56.01 M 69.35 84.21 C 68.09 84.27 66.83 84.34 65.57 84.42 C 65.34 117.90 65.48 151.38 65.50 184.86 C 66.40 184.64 67.30 184.41 68.20 184.18 C 100.40 178.36 132.65 172.72 164.81 166.67 C 164.68 133.45 164.87 100.22 164.71 67.00 C 132.90 72.56 101.11 78.38 69.35 84.21 Z" />
</g>
<g id="#00a94eff">
<path fill="#00a94e" opacity="1.00" d=" M 264.32 190.89 C 264.45 147.43 264.23 103.96 264.42 60.49 C 272.49 60.54 280.56 60.57 288.64 60.48 C 288.48 104.00 288.68 147.53 288.53 191.05 C 280.46 190.90 272.38 191.18 264.32 190.89 Z" />
<path fill="#00a94e" opacity="1.00" d=" M 415.54 60.51 C 423.54 60.52 431.53 60.58 439.53 60.48 C 439.43 69.19 439.51 77.89 439.48 86.60 C 451.26 86.65 463.04 86.58 474.82 86.63 C 474.22 91.85 476.06 97.94 472.39 102.35 C 469.57 106.21 464.58 107.45 460.03 107.48 C 453.19 107.54 446.34 107.54 439.50 107.48 C 439.46 122.66 439.49 137.84 439.48 153.02 C 439.43 158.60 441.21 164.74 445.97 168.10 C 450.87 171.63 457.28 171.36 463.00 170.79 C 466.89 170.73 470.63 169.62 474.30 168.40 C 473.97 173.56 474.70 178.83 473.91 183.92 C 470.28 190.62 461.94 192.36 454.95 192.70 C 444.41 192.81 432.94 190.55 425.25 182.80 C 417.96 175.54 415.68 164.87 415.57 154.92 C 415.52 123.45 415.57 91.98 415.54 60.51 Z" />
<path fill="#00a94e" opacity="1.00" d=" M 641.38 60.48 C 649.25 60.55 657.13 60.56 665.01 60.49 C 665.01 74.76 665.10 89.03 664.96 103.30 C 666.82 102.45 667.73 100.55 668.99 99.05 C 673.72 93.15 680.28 88.38 687.85 87.08 C 698.54 85.41 709.89 87.98 718.68 94.34 C 729.69 102.01 736.40 114.86 738.16 128.00 C 740.62 144.69 736.98 162.81 726.08 175.99 C 711.95 193.16 685.81 197.16 666.18 187.73 C 655.12 182.57 646.72 172.04 644.00 160.18 C 643.80 159.68 643.41 158.68 643.21 158.18 C 641.94 153.23 641.33 148.09 641.39 142.97 C 641.39 115.48 641.40 87.98 641.38 60.48 M 683.19 108.32 C 671.62 111.98 665.68 124.64 665.26 136.04 C 665.26 145.42 665.92 155.61 671.59 163.47 C 676.17 169.88 684.40 172.45 691.99 172.27 C 699.22 172.14 705.76 167.55 709.41 161.48 C 714.51 153.00 715.23 142.64 713.95 133.03 C 713.09 125.64 711.03 117.81 705.30 112.66 C 699.28 107.66 690.64 106.47 683.19 108.32 Z" />
<path fill="#00a94e" opacity="1.00" d=" M 955.30 190.61 C 955.38 147.23 955.12 103.85 955.43 60.47 C 963.48 60.57 971.54 60.55 979.61 60.49 C 979.63 85.04 979.64 109.59 979.44 134.14 C 979.86 133.96 980.71 133.61 981.14 133.43 C 982.11 133.00 982.71 132.22 982.94 131.09 C 990.54 120.47 998.83 110.31 1007.76 100.77 C 1012.48 95.33 1018.42 90.07 1025.90 89.31 C 1032.76 88.67 1039.67 88.99 1046.56 88.98 C 1031.60 103.81 1017.87 119.85 1004.43 136.07 C 1017.66 151.69 1030.88 167.31 1044.16 182.89 C 1045.13 184.13 1046.59 185.17 1046.92 186.80 C 1045.88 188.73 1043.50 189.46 1041.69 190.47 C 1041.63 190.50 1041.51 190.54 1041.45 190.56 C 1033.35 192.75 1024.13 190.80 1018.01 184.94 C 1005.48 172.36 994.71 158.18 983.98 144.07 C 982.59 142.20 981.37 140.15 979.52 138.69 C 979.46 156.01 979.49 173.34 979.51 190.66 C 971.44 190.64 963.37 190.69 955.30 190.61 Z" />
<path fill="#00a94e" opacity="1.00" d=" M 338.12 88.37 C 347.20 86.16 356.83 85.91 365.95 88.11 C 375.84 90.64 384.99 96.71 390.38 105.50 C 395.03 112.77 397.01 121.45 397.19 130.00 C 397.28 150.29 397.12 170.58 397.27 190.87 C 389.29 191.13 381.30 191.04 373.32 190.92 C 373.38 171.94 373.35 152.96 373.34 133.98 C 373.22 126.68 371.99 118.75 366.82 113.21 C 358.44 105.04 342.29 105.26 335.52 115.39 C 335.48 115.43 335.42 115.52 335.39 115.57 C 331.91 120.67 331.08 127.00 330.92 133.03 C 330.90 152.33 330.99 171.65 330.88 190.96 C 323.00 191.06 315.12 191.00 307.24 191.02 C 306.61 176.01 307.13 160.98 306.96 145.97 C 307.18 135.03 305.97 123.61 310.14 113.22 C 314.49 100.88 325.55 91.58 338.12 88.37 Z" />
<path fill="#00a94e" opacity="1.00" d=" M 507.79 90.14 C 517.56 86.18 528.82 85.48 539.01 88.15 C 539.52 88.32 540.53 88.66 541.04 88.83 C 550.34 91.60 558.47 98.05 563.34 106.46 C 563.36 106.51 563.42 106.60 563.44 106.64 C 567.51 114.54 569.24 123.82 567.39 132.58 C 565.96 138.25 561.59 143.14 556.05 145.04 C 555.56 145.26 554.59 145.69 554.11 145.91 C 552.82 146.53 551.43 146.96 550.02 147.12 C 549.51 147.27 548.50 147.57 547.99 147.72 C 541.16 149.47 534.06 149.67 527.05 149.85 C 518.56 150.70 510.01 149.68 501.53 150.50 C 503.03 157.05 506.15 163.54 511.93 167.33 C 520.82 173.86 532.46 174.01 542.94 172.61 C 548.00 171.85 552.96 170.44 557.59 168.25 C 557.33 174.14 557.84 180.05 557.34 185.93 C 553.14 189.36 547.67 190.58 542.47 191.59 C 534.39 192.62 526.08 193.47 518.03 191.75 C 517.53 191.58 516.53 191.26 516.02 191.09 C 493.89 187.02 476.39 165.58 477.17 143.02 C 476.71 132.51 478.75 121.86 483.41 112.41 C 488.24 103.10 496.00 94.94 505.86 91.06 C 506.34 90.83 507.31 90.37 507.79 90.14 M 509.47 112.39 C 503.49 117.72 501.65 125.98 501.61 133.68 C 513.10 133.52 524.72 134.42 536.07 132.21 C 539.79 131.58 543.63 129.69 545.28 126.10 C 546.06 122.42 545.71 118.44 543.94 115.08 C 541.87 110.77 537.38 108.25 532.94 107.01 C 524.87 105.25 515.45 106.09 509.47 112.39 Z" />
<path fill="#00a94e" opacity="1.00" d=" M 593.98 93.90 C 604.21 86.22 618.47 84.50 630.43 88.77 C 630.60 95.15 630.38 101.54 630.57 107.93 C 623.48 107.28 615.02 107.05 609.92 112.92 C 604.29 119.58 604.64 128.85 604.67 137.06 C 604.71 155.03 604.60 173.00 604.73 190.97 C 596.69 191.01 588.65 191.13 580.62 190.88 C 580.56 168.92 580.60 146.95 580.60 124.99 C 580.73 113.45 584.69 101.29 593.98 93.90 Z" />
<path fill="#00a94e" opacity="1.00" d=" M 760.33 93.34 C 770.88 86.77 783.83 85.88 795.92 87.03 C 805.09 88.00 814.40 91.34 820.93 98.08 C 825.75 103.14 828.77 109.71 830.30 116.48 C 832.76 125.80 831.47 135.51 831.79 145.03 C 831.43 153.09 832.94 161.50 829.84 169.20 C 829.61 169.69 829.17 170.65 828.94 171.14 C 826.30 178.93 819.80 184.93 812.54 188.51 C 803.09 192.96 792.36 193.32 782.13 192.35 C 772.10 191.34 761.80 187.77 754.88 180.14 C 744.25 169.36 744.51 149.33 756.42 139.59 C 763.95 133.54 773.64 131.15 783.04 130.02 C 791.34 128.60 799.77 129.35 808.13 129.16 C 808.60 122.69 807.93 114.85 802.19 110.74 C 796.25 106.92 788.83 106.60 781.97 106.66 C 775.48 106.70 769.20 108.40 762.96 109.94 C 762.48 110.16 761.51 110.61 761.03 110.83 C 759.71 111.56 758.34 112.16 757.00 112.80 C 757.25 107.53 757.04 102.24 757.11 96.97 C 756.79 94.97 759.08 94.30 760.33 93.34 M 782.90 147.01 C 780.09 147.87 777.26 148.98 775.05 150.97 C 770.28 156.05 770.77 165.29 776.50 169.48 C 781.14 173.12 787.30 173.73 793.00 173.48 C 798.25 173.32 803.87 171.02 806.40 166.15 C 809.78 159.85 808.17 152.45 808.56 145.63 C 800.00 145.77 791.31 145.00 782.90 147.01 Z" />
<path fill="#00a94e" opacity="1.00" d=" M 868.15 92.17 C 878.15 86.86 889.93 85.68 901.03 87.21 C 914.03 88.95 926.21 97.08 931.97 108.99 C 937.34 119.12 936.92 130.89 936.83 142.01 C 936.81 158.33 936.85 174.65 936.82 190.96 C 928.89 190.89 920.95 191.19 913.03 190.89 C 912.48 170.58 913.10 150.24 912.70 129.92 C 912.37 122.41 909.47 114.27 902.69 110.29 C 895.07 106.31 884.75 106.19 878.02 112.03 C 872.24 117.32 870.55 125.54 870.59 133.07 C 870.55 152.34 870.58 171.61 870.58 190.88 C 862.76 190.96 854.88 191.33 847.10 190.73 C 846.42 188.57 846.89 186.25 846.80 184.03 C 846.62 169.70 846.73 155.36 846.70 141.02 C 846.78 132.29 845.96 123.25 849.15 114.91 C 852.25 105.27 859.14 96.86 868.15 92.17 Z" />
</g>
<g id="#2668503f">
<path fill="#266850" opacity="0.25" d=" M 65.57 84.42 C 66.83 84.34 68.09 84.27 69.35 84.21 C 68.23 84.52 67.11 84.85 65.99 85.19 C 66.03 118.10 65.95 151.01 66.03 183.92 C 66.57 183.99 67.66 184.11 68.20 184.18 C 67.30 184.41 66.40 184.64 65.50 184.86 C 65.48 151.38 65.34 117.90 65.57 84.42 Z" />
<path fill="#266850" opacity="0.25" d=" M 539.01 88.15 L 539.77 87.61 L 540.81 87.96 L 541.04 88.83 C 540.53 88.66 539.52 88.32 539.01 88.15 Z" />
<path fill="#266850" opacity="0.25" d=" M 505.97 90.16 L 506.96 89.69 L 507.79 90.14 C 507.31 90.37 506.34 90.83 505.86 91.06 L 505.97 90.16 Z" />
<path fill="#266850" opacity="0.25" d=" M 563.34 106.46 C 563.36 106.51 563.42 106.60 563.44 106.64 C 563.42 106.60 563.36 106.51 563.34 106.46 Z" />
<path fill="#266850" opacity="0.25" d=" M 761.03 110.83 C 761.51 110.61 762.48 110.16 762.96 109.94 L 762.84 110.85 L 761.85 111.31 L 761.03 110.83 Z" />
<path fill="#266850" opacity="0.25" d=" M 335.39 115.57 C 335.42 115.52 335.48 115.43 335.52 115.39 C 335.48 115.43 335.42 115.52 335.39 115.57 Z" />
<path fill="#266850" opacity="0.25" d=" M 981.14 133.43 C 980.62 131.81 981.22 131.03 982.94 131.09 C 982.71 132.22 982.11 133.00 981.14 133.43 Z" />
<path fill="#266850" opacity="0.25" d=" M 554.11 145.91 C 554.59 145.69 555.56 145.26 556.05 145.04 L 555.91 145.93 L 554.91 146.38 L 554.11 145.91 Z" />
<path fill="#266850" opacity="0.25" d=" M 547.99 147.72 C 548.50 147.57 549.51 147.27 550.02 147.12 L 549.75 147.99 L 548.71 148.30 L 547.99 147.72 Z" />
<path fill="#266850" opacity="0.25" d=" M 643.21 158.18 C 643.41 158.68 643.80 159.68 644.00 160.18 L 643.12 160.01 L 642.71 158.99 L 643.21 158.18 Z" />
<path fill="#266850" opacity="0.25" d=" M 828.94 171.14 C 829.17 170.65 829.61 169.69 829.84 169.20 L 830.30 170.02 L 829.84 171.02 L 828.94 171.14 Z" />
<path fill="#266850" opacity="0.25" d=" M 1041.45 190.56 C 1041.51 190.54 1041.63 190.50 1041.69 190.47 C 1041.63 190.50 1041.51 190.54 1041.45 190.56 Z" />
<path fill="#266850" opacity="0.25" d=" M 516.02 191.09 C 516.53 191.26 517.53 191.58 518.03 191.75 L 517.29 192.31 L 516.26 191.98 L 516.02 191.09 Z" />
</g>
</svg>
