<?xml version="1.0" encoding="UTF-8" ?>
<!DOCTYPE svg PUBLIC "-//W3C//DTD SVG 1.1//EN" "http://www.w3.org/Graphics/SVG/1.1/DTD/svg11.dtd">
<svg width="1134pt" height="491pt" viewBox="0 0 1134 491" version="1.1" xmlns="http://www.w3.org/2000/svg">
<g id="#5fa7dcff">
<path fill="#5fa7dc" opacity="1.00" d=" M 856.77 18.21 C 868.46 13.65 882.76 24.57 881.63 37.04 C 881.25 44.84 875.31 51.63 868.01 53.95 C 867.18 52.79 866.37 51.64 865.56 50.48 C 863.52 50.46 861.49 50.43 859.47 50.41 C 859.17 51.77 858.89 53.13 858.62 54.49 C 850.74 52.60 844.17 45.95 843.27 37.77 C 842.43 29.25 848.49 20.53 856.77 18.21 M 859.45 24.34 C 857.61 25.20 855.85 26.20 854.13 27.25 C 850.85 31.19 849.28 36.93 852.19 41.55 C 856.15 49.45 869.41 49.19 873.00 41.11 C 874.61 38.51 873.81 35.35 873.87 32.47 C 871.74 26.85 865.44 22.82 859.45 24.34 Z" />
<path fill="#5fa7dc" opacity="1.00" d=" M 963.31 52.30 C 965.80 42.83 976.40 35.80 986.03 38.50 C 993.11 39.96 998.37 45.83 1000.61 52.49 C 1000.90 56.90 1001.03 61.57 998.38 65.37 C 995.85 70.48 990.74 73.44 985.44 74.94 L 985.37 73.90 C 985.26 72.31 985.13 70.72 985.01 69.14 C 982.76 69.14 980.51 69.15 978.28 69.16 C 978.14 71.04 978.01 72.93 977.90 74.82 C 968.11 72.72 960.71 62.21 963.31 52.30 M 976.40 45.27 C 971.06 48.12 968.31 55.36 971.02 60.91 C 973.54 68.65 984.99 70.07 990.24 64.32 C 995.62 59.39 993.88 49.73 987.74 46.23 C 984.43 43.84 980.09 44.06 976.40 45.27 Z" />
<path fill="#5fa7dc" opacity="1.00" d=" M 903.30 64.96 C 904.90 55.95 913.22 49.52 922.01 48.36 C 931.17 48.84 940.20 55.48 941.86 64.80 C 944.00 74.47 936.92 86.15 926.73 87.00 C 924.08 87.15 921.43 87.19 918.80 87.28 C 920.84 87.62 922.89 87.95 924.96 88.28 C 924.97 90.47 924.99 92.66 925.01 94.86 C 922.79 95.05 920.57 95.24 918.37 95.44 C 918.38 96.82 918.41 98.21 918.45 99.60 C 920.77 99.62 923.10 99.63 925.44 99.65 C 925.49 98.19 925.55 96.72 925.63 95.26 C 943.05 95.27 960.48 95.24 977.91 95.28 C 978.00 88.72 978.09 82.15 977.86 75.59 C 980.29 75.70 982.73 75.80 985.18 75.91 C 985.02 82.36 985.13 88.82 985.12 95.27 C 1001.57 95.26 1018.03 95.24 1034.50 95.28 C 1036.77 96.98 1039.27 98.67 1040.55 101.31 C 1041.24 103.79 1041.08 106.41 1041.11 108.96 C 1041.07 122.76 1041.10 136.55 1041.10 150.35 C 1039.71 150.38 1038.33 150.42 1036.96 150.45 C 1036.90 152.51 1036.85 154.58 1036.81 156.65 C 1038.38 156.93 1039.97 157.22 1041.56 157.50 C 1040.50 164.92 1041.37 172.49 1041.09 179.97 C 1041.11 191.38 1041.05 202.78 1041.12 214.19 C 1039.74 214.31 1038.37 214.43 1037.01 214.55 C 1036.92 216.62 1036.84 218.70 1036.77 220.78 C 1038.20 220.90 1039.65 221.01 1041.11 221.12 C 1041.07 238.52 1041.10 255.91 1041.10 273.31 C 1044.12 273.35 1047.16 273.49 1050.20 273.32 C 1052.16 270.02 1053.17 265.93 1056.53 263.58 C 1060.03 259.84 1065.14 258.79 1069.99 258.02 C 1072.96 258.50 1075.84 259.45 1078.70 260.39 C 1085.11 264.16 1090.05 271.25 1089.20 278.95 C 1089.07 289.41 1079.04 297.59 1068.97 297.62 C 1063.56 296.98 1058.24 294.57 1054.64 290.40 C 1052.46 287.50 1051.01 284.10 1050.06 280.62 C 1047.06 280.60 1044.08 280.60 1041.10 280.62 C 1041.09 298.04 1041.09 315.47 1041.10 332.89 C 1039.69 333.09 1038.30 333.29 1036.92 333.50 C 1036.90 335.49 1036.90 337.49 1036.90 339.50 C 1038.29 339.69 1039.69 339.89 1041.10 340.10 C 1041.06 356.76 1041.13 373.42 1041.08 390.09 C 1041.11 392.57 1039.77 394.73 1038.81 396.93 C 1037.70 397.72 1036.39 398.37 1035.83 399.69 C 1030.78 399.61 1025.73 399.62 1020.69 399.63 C 1020.66 396.50 1020.63 393.38 1020.60 390.25 C 936.20 390.22 851.80 390.12 767.40 390.30 C 767.36 393.41 767.34 396.52 767.33 399.63 C 759.21 399.67 751.09 399.53 742.98 399.72 C 742.45 397.45 739.38 397.66 738.60 395.57 C 737.84 394.16 736.83 392.73 737.00 391.06 C 737.02 374.89 736.95 358.72 737.36 342.56 C 723.72 342.57 710.07 342.33 696.43 342.68 C 695.94 351.26 689.93 359.10 681.79 361.83 C 675.28 364.79 667.72 362.71 662.02 358.93 C 657.14 355.46 654.27 349.82 653.16 344.04 C 650.89 330.24 665.17 316.10 678.95 319.81 C 686.66 321.17 693.46 327.26 695.34 334.91 C 709.35 335.06 723.36 334.97 737.38 334.96 C 736.97 314.93 736.84 294.88 737.37 274.85 C 725.06 274.51 712.74 274.68 700.43 274.75 C 698.73 281.92 693.44 288.51 686.14 290.42 C 675.26 294.55 662.49 286.24 660.42 275.08 C 658.16 264.72 665.82 253.74 676.11 251.68 C 685.77 249.06 695.74 255.65 699.58 264.44 C 699.64 265.05 699.76 266.28 699.82 266.89 C 712.34 266.88 724.87 267.04 737.40 266.80 C 737.17 250.20 736.59 233.57 737.38 216.97 C 737.65 195.99 736.36 175.01 737.38 154.04 C 737.39 151.98 737.37 149.91 737.37 147.84 C 731.02 147.50 724.65 147.80 718.30 147.62 C 716.70 153.36 713.45 159.04 707.87 161.68 C 701.68 164.99 693.71 164.15 688.21 159.84 C 683.84 156.56 681.36 151.35 680.41 146.08 C 679.06 134.97 688.59 123.49 700.01 123.80 C 708.61 124.34 716.74 131.24 717.88 139.94 C 724.38 139.94 730.88 140.01 737.39 139.88 C 737.29 127.75 736.75 115.62 737.10 103.49 C 738.55 99.95 741.16 97.22 744.45 95.30 C 782.02 95.23 819.60 95.25 857.18 95.29 C 857.60 95.18 858.44 94.95 858.86 94.83 C 859.01 94.43 859.32 93.63 859.47 93.23 C 859.45 80.35 859.41 67.46 859.48 54.58 C 861.89 54.74 864.30 54.42 866.70 54.12 C 865.83 56.30 866.00 58.67 866.01 60.97 C 866.06 72.38 865.99 83.79 866.05 95.20 C 863.94 95.33 861.55 94.50 859.66 95.68 C 859.11 96.93 859.27 98.32 859.16 99.65 C 861.32 99.67 863.47 99.68 865.64 99.70 C 865.77 98.20 865.90 96.70 866.05 95.20 C 883.49 95.35 900.93 95.21 918.38 95.27 C 918.37 92.93 918.50 90.58 918.30 88.24 C 917.77 86.71 915.87 86.90 914.70 86.20 C 906.59 82.89 901.59 73.56 903.30 64.96 M 914.48 56.37 C 911.50 58.28 910.19 61.62 908.72 64.66 C 908.71 66.80 908.72 68.93 908.72 71.07 C 910.61 79.03 919.60 84.92 927.49 81.49 C 936.84 78.58 939.24 65.11 932.67 58.37 C 928.20 53.27 919.91 52.22 914.48 56.37 M 978.46 95.15 C 978.22 97.32 977.96 99.49 977.70 101.67 C 908.80 101.64 839.90 101.66 771.01 101.65 C 769.43 101.63 767.99 102.08 766.71 103.02 C 768.06 103.58 769.48 103.89 770.95 103.94 C 854.03 103.80 937.12 104.08 1020.20 103.81 C 1020.23 103.33 1020.29 102.37 1020.32 101.89 C 1008.71 101.28 997.06 101.90 985.44 101.63 C 985.21 99.46 985.00 97.29 984.82 95.12 C 982.70 94.73 980.55 94.66 978.46 95.15 M 747.57 104.93 C 747.57 199.70 747.57 294.47 747.57 389.24 C 755.06 389.20 762.57 389.57 770.03 388.78 C 852.34 388.76 934.65 388.77 1016.96 388.77 C 1021.70 389.17 1026.44 389.44 1031.20 389.23 C 1030.99 294.45 1031.18 199.67 1031.11 104.89 C 936.59 104.91 842.08 104.84 747.57 104.93 M 688.80 149.44 C 691.46 154.90 697.77 157.02 703.48 155.82 C 709.57 153.17 712.44 146.35 711.30 140.01 C 708.76 135.81 705.53 130.82 699.96 131.00 C 690.75 130.14 685.08 141.74 688.80 149.44 M 668.02 265.98 C 666.45 269.65 667.15 273.85 668.83 277.36 C 670.09 279.05 671.36 280.82 673.24 281.88 C 679.85 286.65 690.73 282.96 692.69 274.92 C 693.17 271.49 693.39 267.64 691.41 264.61 C 688.46 259.71 682.40 256.85 676.76 258.40 C 672.76 259.25 669.78 262.45 668.02 265.98 M 1066.48 263.04 C 1064.17 264.11 1061.65 265.01 1059.87 266.91 C 1057.97 268.80 1057.03 271.38 1055.72 273.67 C 1055.71 275.82 1055.72 277.97 1055.71 280.13 C 1057.19 285.84 1061.66 291.08 1067.79 291.73 C 1073.77 292.72 1080.10 289.15 1082.44 283.58 C 1083.74 280.47 1083.51 276.98 1083.14 273.72 C 1081.83 268.55 1077.49 264.60 1072.49 263.04 C 1070.48 263.04 1068.47 263.04 1066.48 263.04 M 674.25 324.18 C 665.45 324.85 658.01 333.10 659.05 342.02 C 658.71 352.78 671.37 360.58 680.96 355.98 C 691.32 352.28 693.78 337.28 686.19 329.76 C 683.24 326.25 678.68 324.55 674.25 324.18 Z" />
<path fill="#5fa7dc" opacity="1.00" d=" M 920.40 64.33 C 924.13 61.55 929.53 67.28 927.02 71.00 C 925.47 74.24 920.44 74.64 918.48 71.58 C 916.39 69.21 917.88 65.68 920.40 64.33 Z" />
<path fill="#5fa7dc" opacity="1.00" d=" M 762.72 132.98 C 762.47 128.26 765.81 124.70 767.83 120.78 C 767.34 126.83 767.46 132.89 767.49 138.95 C 767.49 214.99 767.48 291.03 767.48 367.06 C 767.39 369.33 768.43 371.37 769.58 373.26 C 764.88 370.73 762.44 365.19 762.69 359.99 C 762.73 284.32 762.68 208.65 762.72 132.98 Z" />
<path fill="#5fa7dc" opacity="1.00" d=" M 460.38 124.66 C 461.74 123.72 463.42 123.88 465.00 123.85 C 480.34 123.95 495.68 123.78 511.02 123.93 C 518.29 125.40 525.84 124.25 533.09 126.04 C 536.58 126.44 540.04 127.08 543.43 128.06 C 550.45 130.14 557.33 132.76 563.51 136.74 C 570.57 141.42 576.63 147.59 581.33 154.63 C 589.76 167.81 592.96 183.99 591.56 199.48 C 590.99 201.38 589.58 202.85 588.45 204.43 C 584.54 207.04 579.98 208.34 575.30 208.42 C 569.68 208.25 563.75 206.48 560.20 201.85 C 552.75 191.61 554.26 177.49 546.67 167.34 C 540.43 159.84 529.79 160.17 520.99 158.69 C 510.79 158.64 500.58 157.33 490.38 158.40 C 481.58 159.16 472.65 157.81 463.93 159.50 C 454.88 159.99 445.62 158.69 436.77 161.25 C 429.15 163.40 421.68 167.56 417.29 174.36 C 412.71 180.63 412.29 188.82 412.85 196.30 C 413.88 199.50 413.80 203.27 416.29 205.84 C 418.01 207.66 419.61 209.74 421.85 210.95 C 428.38 213.91 435.50 215.16 442.51 216.43 C 444.54 216.89 446.79 216.51 448.63 217.66 C 452.44 217.55 456.20 218.08 459.98 218.38 C 471.99 218.38 484.00 218.38 496.02 218.36 C 499.06 218.30 501.97 219.53 505.03 219.27 C 512.73 218.97 520.42 219.66 528.02 220.86 C 534.89 221.47 541.72 222.78 548.28 224.94 C 549.35 225.16 550.43 225.37 551.51 225.56 C 557.51 227.53 563.41 229.84 568.72 233.31 C 582.57 242.99 590.65 259.32 592.79 275.82 C 593.36 279.55 592.97 283.37 593.82 287.06 C 594.54 289.71 593.41 292.30 593.27 294.93 C 593.14 306.31 589.93 317.52 584.95 327.69 C 579.79 337.84 571.74 347.24 560.64 350.92 C 550.00 353.81 538.96 354.66 528.02 355.57 C 516.67 355.53 505.31 355.57 493.96 355.56 C 484.68 354.74 475.35 355.03 466.04 355.08 C 459.23 356.00 452.36 355.20 445.54 355.77 C 438.10 355.60 430.43 355.44 423.48 352.47 C 409.75 347.93 397.31 338.52 390.24 325.78 C 385.58 318.30 382.95 309.74 381.25 301.16 C 379.69 294.00 379.83 285.65 384.81 279.79 C 389.51 274.82 397.08 274.75 403.35 275.78 C 409.08 276.82 412.56 282.16 413.41 287.59 C 414.28 294.89 414.89 302.40 417.81 309.24 C 420.21 314.47 425.13 317.96 430.34 320.04 C 440.25 323.28 450.74 322.12 460.99 322.31 C 469.99 322.36 479.01 322.05 487.99 322.92 C 505.07 322.91 522.17 323.07 539.25 322.84 C 547.62 321.36 552.36 313.64 555.54 306.48 C 556.98 302.40 559.26 298.50 559.41 294.08 C 559.83 284.89 558.81 275.37 554.90 266.95 C 552.16 260.92 545.55 258.21 539.53 256.62 C 536.51 255.64 533.19 256.07 530.25 254.87 C 527.36 254.66 524.47 254.68 521.59 254.48 C 518.79 253.83 515.89 254.05 513.05 254.03 C 493.04 254.00 473.04 254.10 453.04 254.05 C 449.30 254.10 445.64 253.19 441.92 253.15 C 430.09 252.70 418.68 249.17 407.49 245.58 C 399.62 242.90 393.32 236.95 389.10 229.92 C 384.16 222.23 381.21 213.34 380.07 204.30 C 379.73 196.86 377.89 189.38 379.56 181.96 C 380.19 172.73 383.05 163.73 387.50 155.65 C 395.85 141.73 409.92 131.26 425.93 128.11 C 432.76 126.22 439.89 125.80 446.83 124.85 C 451.34 124.60 455.86 124.87 460.38 124.66 Z" />
<path fill="#5fa7dc" opacity="1.00" d=" M 773.30 126.25 C 774.47 125.75 775.71 125.52 777.02 125.56 C 852.68 125.57 928.35 125.58 1004.01 125.56 C 1006.93 125.39 1010.33 126.82 1011.17 129.85 C 1011.93 133.19 1011.57 136.65 1011.64 140.05 C 1011.56 214.00 1011.73 287.96 1011.51 361.90 C 1011.31 365.10 1008.16 367.75 1004.99 367.60 C 930.68 367.69 856.36 367.55 782.04 367.66 C 778.69 367.43 774.68 368.53 771.97 365.99 C 770.16 364.57 769.36 362.28 769.49 360.04 C 769.52 284.34 769.52 208.63 769.49 132.93 C 769.38 130.21 770.83 127.48 773.30 126.25 M 984.01 154.43 C 986.37 154.64 988.73 154.82 991.11 155.00 L 990.89 155.83 C 985.74 156.17 980.30 155.11 975.36 156.31 C 968.37 171.81 962.44 187.80 955.55 203.35 C 954.86 197.77 952.24 192.72 950.40 187.49 C 947.55 180.31 944.93 173.04 942.08 165.86 C 940.74 162.54 939.20 159.02 936.18 156.89 C 933.82 155.15 930.74 155.44 927.99 155.19 C 927.86 156.48 927.79 157.78 927.77 159.08 C 927.22 157.37 926.18 155.45 924.04 155.84 C 911.33 155.82 898.62 155.78 885.91 155.87 C 886.48 158.08 887.02 160.31 887.86 162.44 C 885.86 159.80 884.68 155.55 880.79 155.36 C 879.97 155.77 879.24 156.29 878.61 156.94 C 878.69 156.66 878.86 156.10 878.94 155.82 C 873.80 155.82 868.65 155.83 863.52 155.80 C 856.83 171.61 850.46 187.56 843.69 203.34 C 842.70 197.27 839.52 191.93 837.74 186.11 C 835.89 180.43 833.25 175.06 831.38 169.39 C 829.81 165.32 828.57 160.81 825.23 157.79 C 822.40 155.09 817.97 154.73 814.40 155.97 L 814.24 155.61 C 800.78 155.87 787.33 155.61 773.87 155.74 C 777.05 166.01 781.47 175.85 785.21 185.93 C 793.64 207.50 801.98 229.10 810.41 250.67 C 811.23 253.16 813.14 255.87 811.73 258.51 C 799.85 285.91 788.17 313.40 776.17 340.75 C 781.58 340.78 787.00 340.87 792.42 340.66 C 794.61 335.32 796.67 329.91 799.38 324.80 C 797.65 330.87 794.87 336.55 792.23 342.25 C 789.81 342.31 787.40 342.41 785.00 342.54 L 784.52 341.94 C 783.47 342.24 782.42 342.55 781.39 342.87 C 782.17 344.85 782.51 347.32 784.51 348.51 C 789.49 351.84 796.35 351.17 801.44 348.41 C 804.82 346.68 806.14 342.87 807.70 339.66 C 811.51 331.05 814.82 322.23 818.67 313.63 C 821.55 307.28 823.78 300.59 827.67 294.74 C 833.67 310.05 839.47 325.44 845.32 340.81 C 858.96 340.83 872.61 340.86 886.26 340.79 C 886.15 340.34 885.94 339.45 885.84 339.00 C 886.35 339.21 887.39 339.65 887.91 339.86 C 888.42 338.34 888.94 336.83 889.46 335.32 L 889.87 336.73 C 889.34 338.09 888.83 339.46 888.36 340.85 C 893.61 340.82 898.87 340.86 904.14 340.80 C 906.49 335.74 908.18 330.38 911.03 325.57 C 909.55 331.07 906.99 336.22 904.72 341.41 C 898.83 343.46 892.17 342.10 886.00 341.87 C 873.93 341.86 861.84 341.59 849.80 342.63 C 852.44 345.04 854.89 348.93 858.98 348.43 C 875.86 348.42 892.74 348.36 909.62 348.38 C 916.83 344.43 918.49 335.86 921.57 328.94 C 925.17 321.37 928.10 313.51 931.49 305.85 C 933.19 301.88 934.16 297.47 937.28 294.29 C 937.40 293.40 937.64 291.61 937.76 290.72 C 944.86 307.14 950.66 324.11 957.28 340.73 C 970.90 340.82 984.53 340.74 998.16 340.76 C 995.80 333.21 991.96 326.17 990.11 318.46 C 994.03 325.86 996.28 334.01 999.71 341.64 C 987.50 342.21 975.25 341.39 963.05 342.56 L 962.66 342.14 C 960.90 342.20 959.15 342.27 957.41 342.35 C 959.56 345.74 961.79 349.61 965.83 350.97 C 971.78 352.22 977.89 352.60 983.97 352.40 C 991.57 352.50 999.39 352.63 1006.75 350.51 C 1012.03 347.44 1010.97 340.66 1008.83 335.95 C 997.76 307.95 987.24 279.74 976.12 251.76 C 974.94 248.48 973.65 245.24 972.77 241.88 C 971.78 239.02 973.30 236.21 974.29 233.58 C 983.26 211.92 992.72 190.47 1001.74 168.83 C 1002.83 165.57 1002.78 161.99 1002.21 158.64 C 998.39 152.37 990.07 154.93 984.01 154.43 Z" />
<path fill="#5fa7dc" opacity="1.00" d=" M 1018.05 127.54 C 1019.30 131.57 1018.88 135.83 1018.93 139.98 C 1018.93 211.32 1018.93 282.66 1018.94 354.00 C 1018.89 357.85 1019.25 361.81 1018.04 365.54 C 1017.84 356.36 1017.94 347.17 1017.92 337.99 C 1018.01 267.84 1017.73 197.69 1018.05 127.54 Z" />
<path fill="#5fa7dc" opacity="1.00" d=" M 1096.40 131.90 C 1102.98 129.40 1110.04 131.97 1115.63 135.62 C 1119.29 139.00 1122.77 143.08 1123.54 148.18 C 1123.72 150.93 1123.59 153.69 1123.56 156.45 C 1121.16 162.57 1117.06 168.51 1110.63 170.82 C 1099.94 175.89 1086.17 169.87 1081.98 158.94 L 1082.72 158.04 C 1084.75 156.30 1084.15 153.55 1084.18 151.19 C 1083.43 151.19 1081.94 151.20 1081.20 151.21 C 1080.98 153.17 1080.77 155.13 1080.57 157.10 C 1067.59 156.91 1054.61 157.05 1041.64 157.02 C 1041.91 155.00 1042.15 152.97 1042.38 150.94 C 1054.67 151.23 1066.99 150.58 1079.27 151.31 C 1079.39 151.08 1079.62 150.60 1079.74 150.37 L 1079.82 150.20 C 1081.60 148.58 1081.42 145.74 1082.67 143.70 C 1085.28 137.96 1090.48 133.86 1096.40 131.90 M 1086.74 146.53 C 1084.02 153.96 1088.69 162.33 1095.52 165.59 C 1104.14 169.75 1115.84 164.66 1117.83 155.09 C 1119.82 147.56 1114.39 139.92 1107.40 137.47 C 1099.54 134.36 1089.68 138.55 1086.74 146.53 Z" />
<path fill="#5fa7dc" opacity="1.00" d=" M 1099.15 148.19 C 1102.29 145.67 1106.82 148.43 1107.57 151.99 C 1106.72 153.72 1106.16 156.19 1103.99 156.70 C 1101.44 157.59 1098.25 156.62 1097.11 154.08 C 1096.60 151.91 1096.70 149.08 1099.15 148.19 Z" />
<path fill="#5fa7dc" opacity="1.00" d=" M 888.50 163.94 C 900.31 193.75 911.72 223.73 923.47 253.57 C 924.67 255.71 923.98 258.04 923.01 260.12 C 912.34 284.43 902.02 308.89 891.34 333.19 C 891.57 330.63 891.64 327.98 890.71 325.55 C 880.29 299.47 870.38 273.19 860.08 247.06 C 858.05 242.57 858.05 237.41 860.12 232.93 C 866.99 216.23 874.32 199.72 881.29 183.07 C 883.83 176.76 887.59 170.80 888.50 163.94 Z" />
<path fill="#5fa7dc" opacity="1.00" d=" M 705.38 186.51 C 715.68 185.05 725.36 194.04 726.97 204.02 C 730.04 203.94 733.13 203.94 736.21 203.96 C 736.21 206.48 736.21 209.00 736.21 211.52 C 732.98 211.52 729.75 211.53 726.53 211.50 C 725.07 218.17 720.31 223.89 713.99 226.48 C 708.76 228.25 702.67 228.03 697.91 225.09 C 690.52 221.20 686.53 212.25 687.76 204.10 C 689.02 195.30 696.30 187.31 705.38 186.51 M 702.96 192.08 C 692.03 195.43 689.89 211.40 698.43 218.41 C 702.92 222.53 710.40 223.16 715.19 219.19 C 722.63 214.02 723.13 202.41 717.10 195.96 C 713.72 191.94 707.86 190.98 702.96 192.08 Z" />
<path fill="#5fa7dc" opacity="1.00" d=" M 1077.19 214.22 C 1078.91 204.64 1088.63 198.30 1097.97 198.37 C 1102.41 199.17 1106.94 200.62 1110.37 203.70 C 1116.10 208.57 1118.77 217.29 1115.28 224.23 C 1110.68 236.07 1093.96 239.48 1084.32 231.78 C 1080.55 229.30 1078.59 225.11 1076.98 221.06 C 1065.34 221.15 1053.71 220.90 1042.08 221.19 C 1042.10 219.05 1042.13 216.91 1042.17 214.77 C 1051.13 214.72 1060.09 214.75 1069.06 214.76 C 1071.63 214.73 1074.29 214.99 1076.80 214.22 C 1076.92 216.35 1077.06 218.49 1077.21 220.62 C 1078.51 220.83 1079.83 221.04 1081.16 221.25 C 1081.15 218.89 1081.15 216.54 1081.15 214.19 C 1080.16 214.19 1078.18 214.21 1077.19 214.22 M 1084.41 212.23 C 1083.26 215.10 1083.29 218.22 1084.40 221.10 C 1086.38 224.43 1089.26 227.50 1093.20 228.34 C 1096.86 228.38 1100.97 229.55 1104.04 226.86 C 1110.33 223.65 1111.17 214.39 1106.53 209.45 C 1100.73 202.51 1088.22 203.89 1084.41 212.23 Z" />
<path fill="#5fa7dc" opacity="1.00" d=" M 705.72 202.72 C 708.91 200.86 711.88 203.96 712.36 207.02 C 711.45 209.05 710.60 212.22 707.94 212.38 C 702.97 212.86 700.52 204.32 705.72 202.72 Z" />
<path fill="#5fa7dc" opacity="1.00" d=" M 1064.23 277.03 C 1064.72 274.31 1067.06 271.70 1070.02 271.95 C 1072.50 272.86 1074.85 275.22 1074.24 278.10 C 1074.24 280.34 1072.02 281.55 1070.55 282.85 C 1070.04 282.85 1069.03 282.85 1068.52 282.84 C 1066.11 281.90 1064.12 279.74 1064.23 277.03 Z" />
<path fill="#5fa7dc" opacity="1.00" d=" M 1059.04 333.17 C 1060.63 324.88 1068.55 318.27 1076.99 318.27 C 1087.04 317.63 1096.86 326.79 1096.24 336.99 C 1096.67 344.91 1090.63 352.59 1083.00 354.46 C 1082.66 354.77 1081.97 355.41 1081.63 355.72 C 1078.00 355.64 1074.12 356.38 1070.79 354.58 C 1064.43 352.29 1059.82 346.28 1058.63 339.70 C 1060.72 339.72 1062.82 339.74 1064.93 339.75 C 1064.91 337.59 1064.89 335.44 1064.89 333.29 C 1062.93 333.21 1060.98 333.15 1059.04 333.17 M 1074.54 324.24 C 1073.18 324.89 1071.82 325.52 1070.48 326.19 C 1062.83 331.11 1064.55 343.68 1072.34 347.54 C 1078.51 351.03 1087.07 346.97 1088.63 340.15 C 1091.05 331.86 1083.19 322.63 1074.54 324.24 Z" />
<path fill="#5fa7dc" opacity="1.00" d=" M 1042.37 333.36 C 1047.65 333.36 1052.96 333.65 1058.24 333.18 C 1058.18 335.34 1058.13 337.52 1058.10 339.69 C 1052.85 339.48 1047.60 339.57 1042.35 339.64 C 1042.35 337.54 1042.35 335.45 1042.37 333.36 Z" />
<path fill="#5fa7dc" opacity="1.00" d=" M 353.74 391.23 C 358.34 391.22 362.95 391.32 367.56 391.15 C 370.07 392.66 371.68 395.16 373.52 397.36 C 375.00 399.51 377.20 401.10 378.37 403.46 C 379.60 404.81 380.94 406.06 382.46 407.09 C 386.17 411.24 389.63 415.58 392.87 420.12 C 396.66 423.62 399.45 428.01 403.35 431.42 C 403.34 418.02 403.35 404.63 403.34 391.23 C 405.79 391.22 408.24 391.22 410.69 391.25 C 410.72 408.38 410.70 425.51 410.70 442.64 C 407.27 442.63 403.84 442.62 400.42 442.66 C 400.24 442.05 399.89 440.82 399.72 440.20 C 393.80 433.86 388.16 427.22 382.44 420.71 C 381.14 419.72 379.81 418.77 378.53 417.76 C 378.55 417.28 378.59 416.31 378.61 415.83 C 372.47 410.29 367.78 403.39 361.82 397.67 C 361.87 410.78 361.83 423.90 361.81 437.02 C 361.88 438.97 361.26 440.84 360.86 442.73 C 358.49 442.66 356.11 442.64 353.74 442.64 C 353.74 425.50 353.74 408.37 353.74 391.23 Z" />
<path fill="#5fa7dc" opacity="1.00" d=" M 457.22 391.40 C 459.84 391.38 462.46 391.37 465.09 391.34 C 465.25 402.89 465.08 414.43 465.18 425.97 C 465.21 427.89 465.08 429.81 464.77 431.71 C 463.63 435.08 461.43 438.01 458.57 440.11 C 457.15 440.87 455.29 441.03 454.50 442.62 C 443.62 442.45 432.74 442.50 421.87 442.61 C 420.95 441.21 419.39 440.54 418.04 439.70 C 414.00 435.85 413.99 429.99 413.67 424.83 C 415.77 424.80 417.88 424.79 419.99 424.78 C 420.15 426.82 420.50 428.85 421.19 430.78 C 421.81 433.28 423.78 435.28 426.47 435.29 C 433.32 435.71 440.20 435.74 447.07 435.65 C 450.95 435.57 456.13 434.49 457.11 430.05 C 457.42 417.18 457.19 404.28 457.22 391.40 Z" />
<path fill="#5fa7dc" opacity="1.00" d=" M 470.16 391.41 C 485.77 391.32 501.39 391.41 517.01 391.36 C 519.33 391.10 520.99 393.02 522.85 394.09 C 523.97 395.77 524.95 397.54 525.83 399.37 C 526.36 402.52 526.34 405.75 525.72 408.88 C 525.23 410.81 524.29 412.56 523.40 414.33 C 523.76 414.54 524.46 414.97 524.81 415.18 C 526.65 418.58 529.23 421.94 528.50 426.06 C 529.22 431.27 527.30 436.95 522.71 439.82 C 521.23 440.65 519.44 441.09 518.48 442.60 C 502.39 442.43 486.31 442.57 470.22 442.52 C 470.19 425.48 470.30 408.44 470.16 391.41 M 477.71 412.70 C 489.14 412.75 500.57 412.77 511.99 412.71 C 514.15 412.95 515.94 411.77 517.52 410.46 C 517.57 409.81 517.68 408.51 517.74 407.86 L 518.29 407.37 C 518.60 403.67 517.33 399.76 513.45 398.67 C 501.68 398.84 489.90 398.71 478.14 398.74 C 477.51 403.37 477.90 408.05 477.71 412.70 M 478.27 419.50 C 478.31 424.29 478.14 429.09 478.38 433.88 L 477.07 435.06 C 479.03 435.53 481.04 435.69 483.05 435.64 C 493.38 435.50 503.71 435.72 514.03 435.55 C 517.14 435.60 519.71 433.05 520.08 430.03 C 520.46 429.03 520.79 428.02 521.16 427.02 C 520.65 425.92 520.39 424.75 520.22 423.58 C 519.80 422.83 519.39 422.08 518.98 421.35 C 517.71 420.76 516.46 420.15 515.23 419.53 C 502.91 419.46 490.59 419.52 478.27 419.50 Z" />
<path fill="#5fa7dc" opacity="1.00" d=" M 541.50 394.72 C 550.52 391.16 560.46 391.36 570.00 391.47 C 576.29 391.85 583.12 391.86 588.57 395.45 C 591.09 396.94 592.24 399.77 593.13 402.43 C 593.17 403.65 593.19 404.89 593.18 406.13 C 590.85 406.12 588.52 406.12 586.20 406.13 C 586.02 405.45 585.65 404.08 585.47 403.40 C 584.94 401.84 583.94 400.56 582.74 399.47 C 581.52 398.91 580.34 398.31 579.19 397.67 C 570.47 397.57 561.76 397.65 553.05 397.62 C 549.36 397.86 545.14 398.58 542.91 401.88 C 538.93 406.73 541.01 413.34 540.49 419.05 C 540.11 424.41 540.69 431.35 546.48 433.64 C 555.27 434.89 564.15 434.21 573.00 434.40 C 575.81 434.51 578.58 433.87 581.38 433.67 C 585.46 432.84 584.19 428.20 585.80 425.50 L 586.03 424.75 C 577.91 424.74 569.80 424.75 561.68 424.74 C 561.69 422.48 561.71 420.23 561.73 417.97 C 572.50 417.88 583.44 416.39 594.09 418.69 C 594.12 425.35 594.47 432.60 590.21 438.19 C 588.43 439.98 585.72 440.55 584.17 442.57 C 570.95 442.45 557.72 442.58 544.50 442.53 C 544.29 442.21 543.86 441.56 543.65 441.23 C 541.09 440.46 538.41 439.58 536.84 437.26 C 532.63 428.18 532.84 417.79 533.94 408.06 C 534.92 403.09 536.10 396.70 541.50 394.72 Z" />
<path fill="#5fa7dc" opacity="1.00" d=" M 339.87 392.61 C 342.45 392.55 345.03 392.51 347.62 392.48 C 347.87 402.64 348.09 412.81 347.75 422.97 C 347.55 428.76 345.43 434.29 342.01 438.93 L 341.71 439.40 C 339.89 440.08 338.07 440.77 336.22 441.33 C 336.22 441.70 336.22 442.43 336.22 442.80 C 324.26 442.55 312.29 442.52 300.34 442.80 C 300.29 442.41 300.18 441.64 300.13 441.25 C 294.85 440.42 289.93 436.77 288.30 431.60 C 287.96 430.11 287.81 428.58 287.84 427.07 C 287.91 415.61 287.85 404.15 287.88 392.69 C 289.99 392.69 292.12 392.71 294.24 392.73 C 294.33 403.48 293.80 414.27 294.96 424.99 C 295.40 427.84 295.57 431.08 297.62 433.33 C 300.37 435.97 304.49 435.62 308.00 435.74 C 316.86 435.52 326.02 437.54 334.64 434.67 C 336.95 433.98 338.68 432.10 339.15 429.72 C 339.67 428.22 339.92 426.64 339.88 425.05 C 339.85 414.24 339.86 403.42 339.87 392.61 Z" />
<path fill="#5fa7dc" opacity="1.00" d=" M 982.97 399.78 C 985.19 400.08 987.45 399.91 989.68 399.61 C 989.75 411.56 989.56 423.51 989.78 435.46 C 987.80 435.81 985.83 436.17 983.87 436.47 L 983.19 435.91 C 982.71 423.88 983.15 411.82 982.97 399.78 Z" />
<path fill="#5fa7dc" opacity="1.00" d=" M 799.95 399.59 C 802.31 399.89 804.71 399.88 807.09 399.59 C 807.22 404.67 807.07 409.77 807.21 414.86 C 804.74 414.95 802.28 415.06 799.82 415.17 C 799.99 409.98 799.83 404.78 799.95 399.59 Z" />
<path fill="#5fa7dc" opacity="1.00" d=" M 859.95 399.64 C 862.18 399.86 864.42 399.75 866.66 399.54 C 866.72 402.05 866.58 404.62 867.26 407.07 C 875.47 409.09 881.88 416.67 882.46 425.12 C 883.14 436.85 871.57 446.98 860.12 445.54 C 856.12 444.52 851.95 443.13 849.06 440.04 C 842.38 433.67 841.05 422.25 846.86 414.89 C 848.91 411.76 851.98 409.59 855.31 407.99 C 856.84 407.49 858.39 407.03 859.96 406.58 C 859.93 404.27 859.93 401.95 859.95 399.64 M 849.17 420.34 C 847.46 425.34 848.89 430.92 852.02 435.04 C 857.24 442.07 869.56 441.61 874.18 434.15 C 876.84 430.61 876.55 425.88 876.03 421.73 C 874.88 416.48 870.25 412.95 865.50 411.04 C 858.60 409.77 851.80 413.98 849.17 420.34 Z" />
<path fill="#5fa7dc" opacity="1.00" d=" M 919.36 399.78 C 921.44 400.10 923.56 400.04 925.66 399.70 C 925.69 410.81 925.69 421.92 925.65 433.03 C 925.55 434.47 925.82 435.84 926.48 437.14 C 924.38 437.14 922.28 437.06 920.22 437.40 C 919.46 438.50 919.08 439.79 918.59 441.01 C 920.98 441.08 923.38 441.13 925.79 441.16 C 925.92 440.43 926.18 438.97 926.31 438.24 L 926.49 437.30 C 930.97 438.66 935.47 440.67 938.40 444.49 C 941.68 448.55 943.06 454.28 941.26 459.28 C 938.77 466.95 930.86 471.75 923.06 472.13 C 914.98 472.06 906.51 467.01 904.37 458.89 C 902.36 453.98 904.49 448.46 907.47 444.43 C 910.14 440.63 914.60 438.85 918.88 437.53 C 919.24 435.71 919.41 433.86 919.38 432.01 C 919.32 421.27 919.37 410.52 919.36 399.78 M 911.01 451.49 C 910.67 455.80 911.96 460.81 916.02 463.03 C 922.31 467.25 933.68 464.34 934.35 455.93 C 935.62 448.88 928.65 442.63 921.88 443.18 C 916.93 443.37 912.74 446.99 911.01 451.49 Z" />
<path fill="#5fa7dc" opacity="1.00" d=" M 785.06 430.12 C 786.89 423.12 792.87 417.67 799.89 416.14 C 800.03 418.16 800.18 420.18 800.35 422.21 C 799.92 422.25 799.07 422.34 798.65 422.38 C 797.36 423.19 796.12 424.05 794.88 424.91 C 791.84 429.84 790.23 436.69 794.37 441.52 C 799.30 448.21 811.24 446.88 814.13 438.95 C 816.51 434.28 814.33 429.20 812.16 424.94 C 810.88 424.08 809.62 423.22 808.34 422.41 C 808.04 422.36 807.44 422.27 807.14 422.23 C 807.16 420.20 807.20 418.18 807.21 416.17 C 814.09 417.72 820.14 423.04 821.93 429.95 C 823.62 434.38 822.19 439.17 820.20 443.23 C 816.66 449.35 809.75 452.82 802.84 453.10 C 796.83 452.40 791.33 449.44 787.64 444.63 C 785.50 440.19 783.01 435.06 785.06 430.12 Z" />
<path fill="#5fa7dc" opacity="1.00" d=" M 862.41 419.75 C 866.10 420.38 868.71 423.77 867.46 427.54 C 866.59 428.44 865.73 429.36 864.90 430.29 C 863.53 430.33 862.17 430.37 860.82 430.40 C 860.00 429.72 859.18 429.05 858.37 428.39 C 858.13 426.66 857.51 424.85 858.21 423.14 C 858.80 421.27 860.91 420.68 862.41 419.75 Z" />
<path fill="#5fa7dc" opacity="1.00" d=" M 989.77 435.83 C 994.99 437.10 1000.31 439.02 1003.76 443.41 C 1008.24 448.53 1010.14 456.06 1007.73 462.55 C 1005.75 468.96 1000.26 474.15 993.81 475.92 C 983.56 479.36 971.59 472.51 968.74 462.20 C 965.61 453.15 970.80 442.34 979.37 438.39 C 980.50 437.80 981.66 437.23 982.81 436.64 C 983.00 437.37 983.36 438.84 983.55 439.58 C 985.58 439.57 987.62 439.57 989.67 439.58 C 989.69 438.32 989.72 437.08 989.77 435.83 M 979.55 442.73 C 978.27 444.02 977.00 445.32 975.73 446.62 C 971.28 453.37 973.07 462.81 979.00 468.05 C 985.19 473.31 995.61 472.07 1000.24 465.35 C 1004.11 459.88 1003.71 452.26 1000.23 446.69 C 995.66 440.10 986.25 438.41 979.55 442.73 Z" />
<path fill="#5fa7dc" opacity="1.00" d=" M 987.43 450.77 C 989.13 451.64 991.10 452.33 992.17 454.04 C 992.79 456.04 992.86 458.64 991.15 460.15 C 989.91 461.94 987.52 461.37 985.69 461.65 C 983.97 460.23 982.39 458.34 982.81 455.95 C 982.63 453.14 985.42 451.95 987.43 450.77 Z" />
</g>
<g id="#339ad6ff">
<path fill="#339ad6" opacity="1.00" d=" M 859.47 50.41 C 861.49 50.43 863.52 50.46 865.56 50.48 C 866.37 51.64 867.18 52.79 868.01 53.95 L 866.70 54.12 C 864.30 54.42 861.89 54.74 859.48 54.58 L 858.62 54.49 C 858.89 53.13 859.17 51.77 859.47 50.41 Z" />
<path fill="#339ad6" opacity="1.00" d=" M 978.28 69.16 C 980.51 69.15 982.76 69.14 985.01 69.14 C 985.13 70.72 985.26 72.31 985.37 73.90 C 985.32 74.40 985.23 75.41 985.18 75.91 C 982.73 75.80 980.29 75.70 977.86 75.59 L 977.90 74.82 C 978.01 72.93 978.14 71.04 978.28 69.16 Z" />
<path fill="#339ad6" opacity="1.00" d=" M 918.80 87.28 C 921.43 87.19 924.08 87.15 926.73 87.00 C 924.64 89.08 926.33 92.59 925.63 95.26 C 925.55 96.72 925.49 98.19 925.44 99.65 C 923.10 99.63 920.77 99.62 918.45 99.60 C 918.41 98.21 918.38 96.82 918.37 95.44 C 920.57 95.24 922.79 95.05 925.01 94.86 C 924.99 92.66 924.97 90.47 924.96 88.28 C 922.89 87.95 920.84 87.62 918.80 87.28 Z" />
<path fill="#339ad6" opacity="1.00" d=" M 859.66 95.68 C 861.55 94.50 863.94 95.33 866.05 95.20 C 865.90 96.70 865.77 98.20 865.64 99.70 C 863.47 99.68 861.32 99.67 859.16 99.65 C 859.27 98.32 859.11 96.93 859.66 95.68 Z" />
<path fill="#339ad6" opacity="1.00" d=" M 978.46 95.15 C 980.55 94.66 982.70 94.73 984.82 95.12 C 985.00 97.29 985.21 99.46 985.44 101.63 C 997.06 101.90 1008.71 101.28 1020.32 101.89 C 1020.29 102.37 1020.23 103.33 1020.20 103.81 C 937.12 104.08 854.03 103.80 770.95 103.94 C 769.48 103.89 768.06 103.58 766.71 103.02 C 767.99 102.08 769.43 101.63 771.01 101.65 C 839.90 101.66 908.80 101.64 977.70 101.67 C 977.96 99.49 978.22 97.32 978.46 95.15 Z" />
<path fill="#339ad6" opacity="1.00" d=" M 767.83 120.78 C 770.40 119.59 773.04 118.17 775.99 118.36 C 852.33 118.36 928.68 118.37 1005.03 118.35 C 1010.68 118.23 1016.47 121.99 1018.05 127.54 C 1017.73 197.69 1018.01 267.84 1017.92 337.99 C 1017.94 347.17 1017.84 356.36 1018.04 365.54 C 1017.04 369.33 1014.00 372.08 1010.74 374.01 C 1006.90 375.03 1002.90 374.73 998.98 374.75 C 927.32 374.75 855.65 374.75 783.99 374.75 C 779.33 374.71 774.61 375.06 770.03 374.03 C 769.92 373.84 769.69 373.45 769.58 373.26 C 768.43 371.37 767.39 369.33 767.48 367.06 C 767.48 291.03 767.49 214.99 767.49 138.95 C 767.46 132.89 767.34 126.83 767.83 120.78 M 773.30 126.25 C 770.83 127.48 769.38 130.21 769.49 132.93 C 769.52 208.63 769.52 284.34 769.49 360.04 C 769.36 362.28 770.16 364.57 771.97 365.99 C 774.68 368.53 778.69 367.43 782.04 367.66 C 856.36 367.55 930.68 367.69 1004.99 367.60 C 1008.16 367.75 1011.31 365.10 1011.51 361.90 C 1011.73 287.96 1011.56 214.00 1011.64 140.05 C 1011.57 136.65 1011.93 133.19 1011.17 129.85 C 1010.33 126.82 1006.93 125.39 1004.01 125.56 C 928.35 125.58 852.68 125.57 777.02 125.56 C 775.71 125.52 774.47 125.75 773.30 126.25 Z" />
<path fill="#339ad6" opacity="1.00" d=" M 1036.96 150.45 C 1038.33 150.42 1039.71 150.38 1041.10 150.35 C 1053.97 150.13 1066.88 150.04 1079.74 150.37 C 1079.62 150.60 1079.39 151.08 1079.27 151.31 C 1066.99 150.58 1054.67 151.23 1042.38 150.94 C 1042.15 152.97 1041.91 155.00 1041.64 157.02 L 1041.56 157.50 C 1039.97 157.22 1038.38 156.93 1036.81 156.65 C 1036.85 154.58 1036.90 152.51 1036.96 150.45 Z" />
<path fill="#339ad6" opacity="1.00" d=" M 1081.20 151.21 C 1081.94 151.20 1083.43 151.19 1084.18 151.19 C 1084.15 153.55 1084.75 156.30 1082.72 158.04 C 1082.16 157.97 1081.05 157.84 1080.50 157.77 L 1080.57 157.10 C 1080.77 155.13 1080.98 153.17 1081.20 151.21 Z" />
<path fill="#339ad6" opacity="1.00" d=" M 984.01 154.43 C 990.07 154.93 998.39 152.37 1002.21 158.64 C 1002.78 161.99 1002.83 165.57 1001.74 168.83 C 992.72 190.47 983.26 211.92 974.29 233.58 C 973.30 236.21 971.78 239.02 972.77 241.88 C 973.65 245.24 974.94 248.48 976.12 251.76 C 987.24 279.74 997.76 307.95 1008.83 335.95 C 1010.97 340.66 1012.03 347.44 1006.75 350.51 C 999.39 352.63 991.57 352.50 983.97 352.40 C 977.89 352.60 971.78 352.22 965.83 350.97 C 961.79 349.61 959.56 345.74 957.41 342.35 C 959.15 342.27 960.90 342.20 962.66 342.14 L 963.05 342.56 C 965.25 345.29 968.38 347.50 972.03 347.44 C 981.01 347.50 989.99 347.45 998.98 347.46 C 1001.74 347.69 1004.16 345.73 1005.32 343.35 C 1005.91 341.02 1004.87 338.71 1004.13 336.55 C 992.44 306.57 980.86 276.54 969.15 246.56 C 967.97 242.09 967.87 237.12 969.47 232.74 C 978.64 211.52 987.49 190.15 996.79 168.98 C 997.86 166.38 997.42 163.50 997.50 160.75 C 995.25 159.02 992.65 158.01 989.91 159.28 C 990.24 158.13 990.57 156.98 990.89 155.83 L 991.11 155.00 C 988.73 154.82 986.37 154.64 984.01 154.43 Z" />
<path fill="#339ad6" opacity="1.00" d=" M 814.40 155.97 C 817.97 154.73 822.40 155.09 825.23 157.79 C 828.57 160.81 829.81 165.32 831.38 169.39 C 833.25 175.06 835.89 180.43 837.74 186.11 C 839.52 191.93 842.70 197.27 843.69 203.34 C 841.66 207.93 839.92 212.63 837.97 217.25 C 836.79 214.39 835.86 211.44 834.98 208.48 C 836.05 210.62 837.16 212.73 838.26 214.87 C 839.43 210.98 841.62 206.72 839.64 202.70 C 834.85 190.97 830.66 179.01 825.94 167.26 C 824.67 163.55 822.03 160.58 818.67 158.63 C 818.46 160.65 818.27 162.68 818.17 164.71 C 816.94 161.78 815.69 158.86 814.40 155.97 Z" />
<path fill="#339ad6" opacity="1.00" d=" M 878.61 156.94 C 879.24 156.29 879.97 155.77 880.79 155.36 C 884.68 155.55 885.86 159.80 887.86 162.44 C 888.02 162.82 888.34 163.57 888.50 163.94 C 887.59 170.80 883.83 176.76 881.29 183.07 C 874.32 199.72 866.99 216.23 860.12 232.93 C 858.05 237.41 858.05 242.57 860.08 247.06 C 870.38 273.19 880.29 299.47 890.71 325.55 C 891.64 327.98 891.57 330.63 891.34 333.19 C 890.84 334.37 890.35 335.55 889.87 336.73 L 889.46 335.32 C 889.82 332.26 889.07 329.26 887.70 326.54 C 877.18 299.97 867.12 273.21 856.58 246.65 C 854.69 241.67 855.07 235.98 857.32 231.19 C 866.13 210.90 874.51 190.43 883.47 170.22 C 884.73 167.51 884.63 164.48 884.69 161.57 C 883.87 160.85 883.05 160.13 882.25 159.40 C 880.75 159.46 879.26 159.51 877.78 159.57 C 878.05 158.69 878.33 157.82 878.61 156.94 Z" />
<path fill="#339ad6" opacity="1.00" d=" M 927.99 155.19 C 930.74 155.44 933.82 155.15 936.18 156.89 C 939.20 159.02 940.74 162.54 942.08 165.86 C 944.93 173.04 947.55 180.31 950.40 187.49 C 952.24 192.72 954.86 197.77 955.55 203.35 C 953.59 207.95 951.79 212.61 949.99 217.27 C 946.90 209.33 943.61 201.45 941.11 193.30 C 944.78 199.78 946.46 207.12 949.61 213.82 C 949.86 213.83 950.36 213.84 950.61 213.84 C 952.08 210.03 952.24 205.68 950.79 201.83 C 946.78 191.50 942.80 181.15 938.93 170.76 C 937.20 166.61 935.63 160.50 929.90 160.96 C 930.99 164.83 932.15 168.68 933.19 172.57 C 931.12 168.18 929.39 163.65 927.77 159.08 C 927.79 157.78 927.86 156.48 927.99 155.19 Z" />
<path fill="#339ad6" opacity="1.00" d=" M 1037.01 214.55 C 1038.37 214.43 1039.74 214.31 1041.12 214.19 L 1042.17 214.10 L 1042.17 214.77 C 1042.13 216.91 1042.10 219.05 1042.08 221.19 L 1041.11 221.12 C 1039.65 221.01 1038.20 220.90 1036.77 220.78 C 1036.84 218.70 1036.92 216.62 1037.01 214.55 Z" />
<path fill="#339ad6" opacity="1.00" d=" M 1076.80 214.22 L 1077.19 214.22 C 1078.18 214.21 1080.16 214.19 1081.15 214.19 C 1081.15 216.54 1081.15 218.89 1081.16 221.25 C 1079.83 221.04 1078.51 220.83 1077.21 220.62 C 1077.06 218.49 1076.92 216.35 1076.80 214.22 Z" />
<path fill="#339ad6" opacity="1.00" d=" M 824.21 286.38 C 825.39 289.15 826.55 291.93 827.67 294.74 C 823.78 300.59 821.55 307.28 818.67 313.63 C 814.82 322.23 811.51 331.05 807.70 339.66 C 806.14 342.87 804.82 346.68 801.44 348.41 C 796.35 351.17 789.49 351.84 784.51 348.51 C 782.51 347.32 782.17 344.85 781.39 342.87 C 782.42 342.55 783.47 342.24 784.52 341.94 L 785.00 342.54 C 786.57 344.47 788.16 346.78 790.80 347.26 C 796.22 348.55 801.77 344.87 803.80 339.89 C 810.64 324.37 816.58 308.43 824.02 293.17 C 824.85 291.00 824.34 288.62 824.21 286.38 Z" />
<path fill="#339ad6" opacity="1.00" d=" M 1036.92 333.50 C 1038.30 333.29 1039.69 333.09 1041.10 332.89 L 1042.37 332.71 L 1042.37 333.36 C 1042.35 335.45 1042.35 337.54 1042.35 339.64 L 1042.35 340.27 L 1041.10 340.10 C 1039.69 339.89 1038.29 339.69 1036.90 339.50 C 1036.90 337.49 1036.90 335.49 1036.92 333.50 Z" />
<path fill="#339ad6" opacity="1.00" d=" M 1058.24 333.18 L 1059.04 333.17 C 1060.98 333.15 1062.93 333.21 1064.89 333.29 C 1064.89 335.44 1064.91 337.59 1064.93 339.75 C 1062.82 339.74 1060.72 339.72 1058.63 339.70 L 1058.10 339.69 C 1058.13 337.52 1058.18 335.34 1058.24 333.18 Z" />
<path fill="#339ad6" opacity="1.00" d=" M 672.27 335.49 C 675.90 333.95 679.19 336.76 680.16 340.10 C 680.70 342.95 678.27 344.90 676.46 346.64 C 674.56 346.40 672.13 346.92 670.94 345.02 C 668.03 342.23 669.51 337.78 672.27 335.49 Z" />
<path fill="#339ad6" opacity="1.00" d=" M 767.40 390.30 C 851.80 390.12 936.20 390.22 1020.60 390.25 C 1020.63 393.38 1020.66 396.50 1020.69 399.63 C 1010.35 399.98 999.99 398.75 989.68 399.61 C 987.45 399.91 985.19 400.08 982.97 399.78 C 977.35 398.73 971.66 399.70 966.02 399.64 C 959.65 399.62 953.29 399.63 946.94 399.64 C 939.85 399.50 932.71 398.85 925.66 399.70 C 923.56 400.04 921.44 400.10 919.36 399.78 C 915.65 399.12 911.87 399.25 908.13 399.44 C 894.31 400.20 880.47 398.97 866.66 399.54 C 864.42 399.75 862.18 399.86 859.95 399.64 C 851.30 398.75 842.62 400.00 833.96 399.63 C 825.00 399.96 816.03 398.78 807.09 399.59 C 804.71 399.88 802.31 399.89 799.95 399.59 C 789.09 398.93 778.20 400.02 767.33 399.63 C 767.34 396.52 767.36 393.41 767.40 390.30 Z" />
<path fill="#339ad6" opacity="1.00" d=" M 799.82 415.17 C 802.28 415.06 804.74 414.95 807.21 414.86 L 807.21 416.17 C 807.20 418.18 807.16 420.20 807.14 422.23 C 804.87 422.11 802.60 422.09 800.35 422.21 C 800.18 420.18 800.03 418.16 799.89 416.14 L 799.82 415.17 Z" />
<path fill="#339ad6" opacity="1.00" d=" M 983.87 436.47 C 985.83 436.17 987.80 435.81 989.78 435.46 L 989.77 435.83 C 989.72 437.08 989.69 438.32 989.67 439.58 C 987.62 439.57 985.58 439.57 983.55 439.58 C 983.36 438.84 983.00 437.37 982.81 436.64 C 983.08 436.60 983.60 436.51 983.87 436.47 Z" />
<path fill="#339ad6" opacity="1.00" d=" M 920.22 437.40 C 922.28 437.06 924.38 437.14 926.48 437.14 L 926.31 438.24 C 926.18 438.97 925.92 440.43 925.79 441.16 C 923.38 441.13 920.98 441.08 918.59 441.01 C 919.08 439.79 919.46 438.50 920.22 437.40 Z" />
</g>
<g id="#353535ff">
<path fill="#353535" opacity="1.00" d=" M 56.48 131.63 C 63.86 129.32 71.48 127.34 79.27 127.37 C 81.62 126.04 84.41 126.58 86.99 126.48 C 109.99 126.52 132.99 126.51 155.99 126.49 C 158.70 126.55 161.52 126.11 164.08 127.23 C 173.60 127.68 181.79 133.25 189.15 138.79 C 198.92 147.42 206.06 159.07 209.03 171.79 C 211.23 181.13 212.84 190.82 211.51 200.41 C 210.81 203.26 210.23 207.00 207.12 208.19 C 201.75 210.46 195.81 209.35 190.16 209.53 C 187.73 209.58 186.34 207.24 185.79 205.18 C 182.33 194.48 183.77 182.58 178.75 172.30 C 176.49 167.27 172.29 162.95 166.92 161.35 C 161.09 159.78 155.04 159.45 149.05 159.13 C 129.04 158.31 108.99 158.36 89.01 159.69 C 78.95 160.92 68.56 161.17 59.01 164.89 C 53.61 167.62 49.81 172.75 47.18 178.07 C 42.11 188.97 41.57 201.20 40.89 213.00 C 40.34 220.63 41.14 228.32 40.10 235.92 C 39.91 244.97 39.57 254.03 40.18 263.06 C 41.05 271.69 42.10 280.31 43.67 288.84 C 44.96 295.52 45.72 302.36 48.15 308.76 C 51.12 318.10 60.95 322.51 69.40 325.78 C 76.80 328.28 84.60 329.78 92.40 330.16 C 95.62 331.90 99.45 330.62 102.94 330.99 C 113.24 332.03 123.61 331.46 133.94 331.58 C 137.49 331.21 141.21 331.46 144.62 330.27 C 151.28 329.30 157.83 327.66 164.51 326.88 C 173.04 324.23 176.68 315.37 180.10 307.97 C 183.07 301.68 182.79 294.59 183.34 287.84 C 183.45 285.07 186.40 284.14 188.46 283.09 C 192.56 281.98 196.83 282.35 200.98 281.61 C 204.00 281.11 207.79 281.84 209.03 285.03 C 213.57 294.09 211.43 304.69 209.04 314.06 C 205.13 327.15 197.90 339.68 187.08 348.21 C 174.33 356.75 158.32 357.70 143.45 358.56 C 133.19 359.12 122.93 358.72 112.66 358.59 C 101.44 358.22 90.21 358.01 78.99 358.05 C 62.77 357.17 44.73 355.44 32.52 343.47 C 21.09 331.62 15.74 315.08 14.09 298.99 C 13.78 295.94 13.22 292.83 13.78 289.78 C 14.49 287.56 14.28 285.23 13.34 283.12 C 12.46 273.66 12.92 264.02 11.61 254.55 C 11.22 245.36 11.52 236.14 11.42 226.93 C 12.49 210.92 13.16 194.70 17.44 179.14 C 19.05 172.20 21.07 165.37 22.60 158.43 C 29.44 145.16 42.84 136.68 56.48 131.63 Z" />
<path fill="#353535" opacity="1.00" d=" M 247.28 132.03 C 251.87 128.74 257.53 127.71 263.01 127.05 C 267.70 125.94 272.48 126.96 277.09 127.89 C 279.14 128.32 280.89 129.50 282.46 130.82 C 282.28 203.85 282.48 276.87 282.35 349.89 C 275.99 351.39 269.71 354.00 263.03 353.37 C 258.50 352.85 253.42 352.39 249.87 349.19 C 248.29 346.84 248.29 343.79 247.98 341.06 C 248.71 317.11 246.16 293.19 245.76 269.24 C 245.64 266.08 245.64 262.91 245.77 259.75 C 246.19 222.83 246.08 185.91 246.13 148.99 C 246.00 143.36 243.96 137.14 247.28 132.03 Z" />
<path fill="#353535" opacity="1.00" d=" M 322.53 129.33 C 328.98 128.20 335.54 128.46 342.06 128.52 C 345.45 128.60 348.70 129.71 351.62 131.37 C 354.00 135.16 353.63 139.73 353.44 144.00 C 352.80 151.99 351.62 159.95 351.62 167.99 C 351.61 211.00 351.62 254.01 351.62 297.02 C 351.66 314.69 349.68 332.29 349.77 349.95 C 341.40 352.34 332.40 355.11 323.80 352.09 C 320.41 350.77 315.20 349.59 315.13 345.09 C 315.05 276.04 315.11 206.99 315.10 137.95 C 314.96 133.60 319.15 131.08 322.53 129.33 Z" />
</g>
<g id="#e7eff8ff">
<path fill="#e7eff8" opacity="1.00" d=" M 863.52 155.80 C 868.65 155.83 873.80 155.82 878.94 155.82 C 878.86 156.10 878.69 156.66 878.61 156.94 C 878.33 157.82 878.05 158.69 877.78 159.57 C 867.07 184.76 856.25 209.92 845.48 235.08 C 857.71 266.34 869.97 297.59 882.19 328.86 C 883.49 332.20 885.01 335.48 885.84 339.00 C 885.94 339.45 886.15 340.34 886.26 340.79 C 872.61 340.86 858.96 340.83 845.32 340.81 C 839.47 325.44 833.67 310.05 827.67 294.74 C 826.55 291.93 825.39 289.15 824.21 286.38 C 822.72 282.72 821.22 279.06 820.07 275.27 C 813.82 292.03 806.25 308.29 799.38 324.80 C 796.67 329.91 794.61 335.32 792.42 340.66 C 787.00 340.87 781.58 340.78 776.17 340.75 C 788.17 313.40 799.85 285.91 811.73 258.51 C 813.14 255.87 811.23 253.16 810.41 250.67 C 801.98 229.10 793.64 207.50 785.21 185.93 C 781.47 175.85 777.05 166.01 773.87 155.74 C 787.33 155.61 800.78 155.87 814.24 155.61 L 814.40 155.97 C 815.69 158.86 816.94 161.78 818.17 164.71 C 823.89 179.26 829.29 193.93 834.98 208.48 C 835.86 211.44 836.79 214.39 837.97 217.25 C 839.92 212.63 841.66 207.93 843.69 203.34 C 850.46 187.56 856.83 171.61 863.52 155.80 Z" />
<path fill="#e7eff8" opacity="1.00" d=" M 885.91 155.87 C 898.62 155.78 911.33 155.82 924.04 155.84 C 926.18 155.45 927.22 157.37 927.77 159.08 C 929.39 163.65 931.12 168.18 933.19 172.57 C 935.73 179.51 938.37 186.43 941.11 193.30 C 943.61 201.45 946.90 209.33 949.99 217.27 C 951.79 212.61 953.59 207.95 955.55 203.35 C 962.44 187.80 968.37 171.81 975.36 156.31 C 980.30 155.11 985.74 156.17 990.89 155.83 C 990.57 156.98 990.24 158.13 989.91 159.28 C 979.23 184.61 968.25 209.81 957.47 235.10 C 968.23 262.93 979.13 290.71 990.11 318.46 C 991.96 326.17 995.80 333.21 998.16 340.76 C 984.53 340.74 970.90 340.82 957.28 340.73 C 950.66 324.11 944.86 307.14 937.76 290.72 C 935.72 285.65 933.71 280.56 932.02 275.36 C 930.18 281.39 927.35 287.04 924.95 292.86 C 920.31 303.76 915.72 314.69 911.03 325.57 C 908.18 330.38 906.49 335.74 904.14 340.80 C 898.87 340.86 893.61 340.82 888.36 340.85 C 888.83 339.46 889.34 338.09 889.87 336.73 C 890.35 335.55 890.84 334.37 891.34 333.19 C 902.02 308.89 912.34 284.43 923.01 260.12 C 923.98 258.04 924.67 255.71 923.47 253.57 C 911.72 223.73 900.31 193.75 888.50 163.94 C 888.34 163.57 888.02 162.82 887.86 162.44 C 887.02 160.31 886.48 158.08 885.91 155.87 Z" />
<path fill="#e7eff8" opacity="1.00" d=" M 112.66 358.59 C 122.93 358.72 133.19 359.12 143.45 358.56 C 137.39 359.53 131.19 358.80 125.07 359.02 C 120.94 358.87 116.74 359.40 112.66 358.59 Z" />
<path fill="#e7eff8" opacity="1.00" d=" M 538.07 393.63 C 541.86 392.07 545.78 390.35 549.96 390.46 C 559.99 390.51 570.01 390.52 580.04 390.46 C 583.65 390.18 586.68 392.46 589.93 393.66 C 592.24 395.94 593.51 399.16 593.13 402.43 C 592.24 399.77 591.09 396.94 588.57 395.45 C 583.12 391.86 576.29 391.85 570.00 391.47 C 560.46 391.36 550.52 391.16 541.50 394.72 C 536.10 396.70 534.92 403.09 533.94 408.06 C 532.84 417.79 532.63 428.18 536.84 437.26 C 535.82 436.12 534.96 434.86 534.13 433.59 C 531.54 426.31 532.79 418.56 532.46 411.01 C 532.25 407.79 532.86 404.61 533.73 401.52 C 535.00 398.81 535.95 395.84 538.07 393.63 Z" />
<path fill="#e7eff8" opacity="1.00" d=" M 339.87 391.61 C 342.84 391.60 345.81 391.60 348.78 391.61 C 348.85 402.09 348.63 412.58 348.80 423.06 C 348.93 426.75 347.04 430.08 346.25 433.60 C 345.05 435.54 343.72 437.41 342.01 438.93 C 345.43 434.29 347.55 428.76 347.75 422.97 C 348.09 412.81 347.87 402.64 347.62 392.48 C 345.03 392.51 342.45 392.55 339.87 392.61 L 339.87 391.61 Z" />
<path fill="#e7eff8" opacity="1.00" d=" M 287.87 391.61 C 290.28 391.60 292.70 391.60 295.13 391.61 C 295.53 404.22 293.98 417.02 296.70 429.44 C 297.12 430.28 297.53 431.13 297.93 431.99 C 299.27 432.55 300.58 433.19 301.94 433.73 C 304.47 434.20 307.25 433.26 309.61 434.54 C 318.31 434.37 327.23 435.61 335.69 432.98 C 336.84 431.89 337.98 430.79 339.15 429.72 C 338.68 432.10 336.95 433.98 334.64 434.67 C 326.02 437.54 316.86 435.52 308.00 435.74 C 304.49 435.62 300.37 435.97 297.62 433.33 C 295.57 431.08 295.40 427.84 294.96 424.99 C 293.80 414.27 294.33 403.48 294.24 392.73 C 292.12 392.71 289.99 392.69 287.88 392.69 L 287.87 391.61 Z" />
<path fill="#e7eff8" opacity="1.00" d=" M 477.71 412.70 C 477.90 408.05 477.51 403.37 478.14 398.74 C 478.26 402.74 478.21 406.74 478.21 410.74 C 489.47 410.72 500.74 410.75 512.00 410.74 C 514.30 410.91 516.14 409.30 517.74 407.86 C 517.68 408.51 517.57 409.81 517.52 410.46 C 515.94 411.77 514.15 412.95 511.99 412.71 C 500.57 412.77 489.14 412.75 477.71 412.70 Z" />
<path fill="#e7eff8" opacity="1.00" d=" M 560.35 416.73 C 564.21 416.66 568.17 417.15 571.94 416.00 C 579.05 415.56 586.16 415.84 593.19 416.79 C 593.42 417.27 593.86 418.22 594.09 418.69 C 583.44 416.39 572.50 417.88 561.73 417.97 C 561.71 420.23 561.69 422.48 561.68 424.74 L 560.36 424.79 C 560.34 422.10 560.34 419.42 560.35 416.73 Z" />
<path fill="#e7eff8" opacity="1.00" d=" M 412.88 423.74 C 415.30 423.73 417.72 423.73 420.15 423.74 L 419.99 424.78 C 417.88 424.79 415.77 424.80 413.67 424.83 C 413.99 429.99 414.00 435.85 418.04 439.70 C 412.65 436.55 412.63 429.25 412.88 423.74 Z" />
<path fill="#e7eff8" opacity="1.00" d=" M 448.09 434.44 C 451.62 434.25 454.65 432.47 457.11 430.05 C 456.13 434.49 450.95 435.57 447.07 435.65 C 440.20 435.74 433.32 435.71 426.47 435.29 C 423.78 435.28 421.81 433.28 421.19 430.78 C 421.46 431.24 421.99 432.15 422.26 432.60 C 422.85 432.89 424.04 433.47 424.63 433.75 C 427.73 433.62 430.84 433.68 433.86 434.42 C 438.60 434.54 443.35 434.50 448.09 434.44 Z" />
<path fill="#e7eff8" opacity="1.00" d=" M 517.06 433.80 C 518.12 432.59 519.18 431.37 520.08 430.03 C 519.71 433.05 517.14 435.60 514.03 435.55 C 503.71 435.72 493.38 435.50 483.05 435.64 C 481.04 435.69 479.03 435.53 477.07 435.06 L 478.38 433.88 C 491.26 433.57 504.17 433.76 517.06 433.80 Z" />
</g>
<g id="#24516dff">
<path fill="#24516d" opacity="1.00" d=" M 989.91 159.28 C 992.65 158.01 995.25 159.02 997.50 160.75 C 997.42 163.50 997.86 166.38 996.79 168.98 C 987.49 190.15 978.64 211.52 969.47 232.74 C 967.87 237.12 967.97 242.09 969.15 246.56 C 980.86 276.54 992.44 306.57 1004.13 336.55 C 1004.87 338.71 1005.91 341.02 1005.32 343.35 C 1004.16 345.73 1001.74 347.69 998.98 347.46 C 989.99 347.45 981.01 347.50 972.03 347.44 C 968.38 347.50 965.25 345.29 963.05 342.56 C 975.25 341.39 987.50 342.21 999.71 341.64 C 996.28 334.01 994.03 325.86 990.11 318.46 C 979.13 290.71 968.23 262.93 957.47 235.10 C 968.25 209.81 979.23 184.61 989.91 159.28 Z" />
<path fill="#24516d" opacity="1.00" d=" M 818.17 164.71 C 818.27 162.68 818.46 160.65 818.67 158.63 C 822.03 160.58 824.67 163.55 825.94 167.26 C 830.66 179.01 834.85 190.97 839.64 202.70 C 841.62 206.72 839.43 210.98 838.26 214.87 C 837.16 212.73 836.05 210.62 834.98 208.48 C 829.29 193.93 823.89 179.26 818.17 164.71 Z" />
<path fill="#24516d" opacity="1.00" d=" M 877.78 159.57 C 879.26 159.51 880.75 159.46 882.25 159.40 C 883.05 160.13 883.87 160.85 884.69 161.57 C 884.63 164.48 884.73 167.51 883.47 170.22 C 874.51 190.43 866.13 210.90 857.32 231.19 C 855.07 235.98 854.69 241.67 856.58 246.65 C 867.12 273.21 877.18 299.97 887.70 326.54 C 889.07 329.26 889.82 332.26 889.46 335.32 C 888.94 336.83 888.42 338.34 887.91 339.86 C 887.39 339.65 886.35 339.21 885.84 339.00 C 885.01 335.48 883.49 332.20 882.19 328.86 C 869.97 297.59 857.71 266.34 845.48 235.08 C 856.25 209.92 867.07 184.76 877.78 159.57 Z" />
<path fill="#24516d" opacity="1.00" d=" M 929.90 160.96 C 935.63 160.50 937.20 166.61 938.93 170.76 C 942.80 181.15 946.78 191.50 950.79 201.83 C 952.24 205.68 952.08 210.03 950.61 213.84 C 950.36 213.84 949.86 213.83 949.61 213.82 C 946.46 207.12 944.78 199.78 941.11 193.30 C 938.37 186.43 935.73 179.51 933.19 172.57 C 932.15 168.68 930.99 164.83 929.90 160.96 Z" />
<path fill="#24516d" opacity="1.00" d=" M 799.38 324.80 C 806.25 308.29 813.82 292.03 820.07 275.27 C 821.22 279.06 822.72 282.72 824.21 286.38 C 824.34 288.62 824.85 291.00 824.02 293.17 C 816.58 308.43 810.64 324.37 803.80 339.89 C 801.77 344.87 796.22 348.55 790.80 347.26 C 788.16 346.78 786.57 344.47 785.00 342.54 C 787.40 342.41 789.81 342.31 792.23 342.25 C 794.87 336.55 797.65 330.87 799.38 324.80 Z" />
<path fill="#24516d" opacity="1.00" d=" M 924.95 292.86 C 927.35 287.04 930.18 281.39 932.02 275.36 C 933.71 280.56 935.72 285.65 937.76 290.72 C 937.64 291.61 937.40 293.40 937.28 294.29 C 934.16 297.47 933.19 301.88 931.49 305.85 C 928.10 313.51 925.17 321.37 921.57 328.94 C 918.49 335.86 916.83 344.43 909.62 348.38 C 892.74 348.36 875.86 348.42 858.98 348.43 C 854.89 348.93 852.44 345.04 849.80 342.63 C 861.84 341.59 873.93 341.86 886.00 341.87 C 892.17 342.10 898.83 343.46 904.72 341.41 C 906.99 336.22 909.55 331.07 911.03 325.57 C 915.72 314.69 920.31 303.76 924.95 292.86 Z" />
<path fill="#24516d" opacity="1.00" d=" M 13.34 283.12 C 14.28 285.23 14.49 287.56 13.78 289.78 C 12.04 288.69 12.69 284.96 13.34 283.12 Z" />
</g>
<g id="#5682a34b">
<path fill="#5682a3" opacity="0.29" d=" M 245.76 269.24 C 244.73 266.19 244.71 262.80 245.77 259.75 C 245.64 262.91 245.64 266.08 245.76 269.24 Z" />
</g>
</svg>
